<svg width="207" height="203" viewBox="0 0 207 203" fill="none" xmlns="http://www.w3.org/2000/svg">
<g opacity="0.2">
<g opacity="0.2">
<g opacity="0.2">
<path opacity="0.2" d="M1.5 160.589H0V162.589H1.5V160.589Z" fill="black"/>
</g>
<g opacity="0.2">
<path opacity="0.2" d="M198.987 162.589H195.995V160.589H198.987V162.589ZM190.01 162.589H187.018V160.589H190.01V162.589ZM181.033 162.589H178.041V160.589H181.033V162.589ZM172.057 162.589H169.065V160.589H172.057V162.589ZM163.08 162.589H160.088V160.589H163.08V162.589ZM154.104 162.589H151.112V160.589H154.104V162.589ZM145.127 162.589H142.135V160.589H145.127V162.589ZM136.151 162.589H133.159V160.589H136.151V162.589ZM127.173 162.589H124.181V160.589H127.173V162.589ZM118.197 162.589H115.205V160.589H118.197V162.589ZM109.22 162.589H106.228V160.589H109.22V162.589ZM100.243 162.589H97.2509V160.589H100.243V162.589ZM91.2668 162.589H88.2748V160.589H91.2668V162.589ZM82.2899 162.589H79.2979V160.589H82.2899V162.589ZM73.3138 162.589H70.3218V160.589H73.3138V162.589ZM64.3369 162.589H61.3448V160.589H64.3369V162.589ZM55.3608 162.589H52.3688V160.589H55.3608V162.589ZM46.3829 162.589H43.3909V160.589H46.3829V162.589ZM37.4069 162.589H34.4149V160.589H37.4069V162.589ZM28.4299 162.589H25.4379V160.589H28.4299V162.589ZM19.4529 162.589H16.4609V160.589H19.4529V162.589ZM10.4769 162.589H7.48486V160.589H10.4769V162.589Z" fill="black"/>
</g>
<g opacity="0.2">
<path opacity="0.2" d="M206.471 160.589H204.971V162.589H206.471V160.589Z" fill="black"/>
</g>
</g>
</g>
<g opacity="0.2">
<g opacity="0.2">
<g opacity="0.2">
<path opacity="0.2" d="M1.5 200.736H0V202.736H1.5V200.736Z" fill="black"/>
</g>
<g opacity="0.2">
<path opacity="0.2" d="M198.987 202.736H195.995V200.736H198.987V202.736ZM190.01 202.736H187.018V200.736H190.01V202.736ZM181.033 202.736H178.041V200.736H181.033V202.736ZM172.057 202.736H169.065V200.736H172.057V202.736ZM163.08 202.736H160.088V200.736H163.08V202.736ZM154.104 202.736H151.112V200.736H154.104V202.736ZM145.127 202.736H142.135V200.736H145.127V202.736ZM136.151 202.736H133.159V200.736H136.151V202.736ZM127.173 202.736H124.181V200.736H127.173V202.736ZM118.197 202.736H115.205V200.736H118.197V202.736ZM109.22 202.736H106.228V200.736H109.22V202.736ZM100.243 202.736H97.2509V200.736H100.243V202.736ZM91.2668 202.736H88.2748V200.736H91.2668V202.736ZM82.2899 202.736H79.2979V200.736H82.2899V202.736ZM73.3138 202.736H70.3218V200.736H73.3138V202.736ZM64.3369 202.736H61.3448V200.736H64.3369V202.736ZM55.3608 202.736H52.3688V200.736H55.3608V202.736ZM46.3829 202.736H43.3909V200.736H46.3829V202.736ZM37.4069 202.736H34.4149V200.736H37.4069V202.736ZM28.4299 202.736H25.4379V200.736H28.4299V202.736ZM19.4529 202.736H16.4609V200.736H19.4529V202.736ZM10.4769 202.736H7.48486V200.736H10.4769V202.736Z" fill="black"/>
</g>
<g opacity="0.2">
<path opacity="0.2" d="M206.471 200.736H204.971V202.736H206.471V200.736Z" fill="black"/>
</g>
</g>
</g>
<g opacity="0.2">
<g opacity="0.2">
<g opacity="0.2">
<path opacity="0.2" d="M1.5 0H0V2H1.5V0Z" fill="black"/>
</g>
<g opacity="0.2">
<path opacity="0.2" d="M198.987 2H195.995V0H198.987V2ZM190.01 2H187.018V0H190.01V2ZM181.033 2H178.041V0H181.033V2ZM172.057 2H169.065V0H172.057V2ZM163.08 2H160.088V0H163.08V2ZM154.104 2H151.112V0H154.104V2ZM145.127 2H142.135V0H145.127V2ZM136.151 2H133.159V0H136.151V2ZM127.173 2H124.181V0H127.173V2ZM118.197 2H115.205V0H118.197V2ZM109.22 2H106.228V0H109.22V2ZM100.243 2H97.2509V0H100.243V2ZM91.2668 2H88.2748V0H91.2668V2ZM82.2899 2H79.2979V0H82.2899V2ZM73.3138 2H70.3218V0H73.3138V2ZM64.3369 2H61.3448V0H64.3369V2ZM55.3608 2H52.3688V0H55.3608V2ZM46.3829 2H43.3909V0H46.3829V2ZM37.4069 2H34.4149V0H37.4069V2ZM28.4299 2H25.4379V0H28.4299V2ZM19.4529 2H16.4609V0H19.4529V2ZM10.4769 2H7.48486V0H10.4769V2Z" fill="black"/>
</g>
<g opacity="0.2">
<path opacity="0.2" d="M206.471 0H204.971V2H206.471V0Z" fill="black"/>
</g>
</g>
</g>
<g opacity="0.2">
<g opacity="0.2">
<g opacity="0.2">
<path opacity="0.2" d="M1.5 120.441H0V122.441H1.5V120.441Z" fill="black"/>
</g>
<g opacity="0.2">
<path opacity="0.2" d="M198.987 122.441H195.995V120.441H198.987V122.441ZM190.01 122.441H187.018V120.441H190.01V122.441ZM181.033 122.441H178.041V120.441H181.033V122.441ZM172.057 122.441H169.065V120.441H172.057V122.441ZM163.08 122.441H160.088V120.441H163.08V122.441ZM154.104 122.441H151.112V120.441H154.104V122.441ZM145.127 122.441H142.135V120.441H145.127V122.441ZM136.151 122.441H133.159V120.441H136.151V122.441ZM127.173 122.441H124.181V120.441H127.173V122.441ZM118.197 122.441H115.205V120.441H118.197V122.441ZM109.22 122.441H106.228V120.441H109.22V122.441ZM100.243 122.441H97.2509V120.441H100.243V122.441ZM91.2668 122.441H88.2748V120.441H91.2668V122.441ZM82.2899 122.441H79.2979V120.441H82.2899V122.441ZM73.3138 122.441H70.3218V120.441H73.3138V122.441ZM64.3369 122.441H61.3448V120.441H64.3369V122.441ZM55.3608 122.441H52.3688V120.441H55.3608V122.441ZM46.3829 122.441H43.3909V120.441H46.3829V122.441ZM37.4069 122.441H34.4149V120.441H37.4069V122.441ZM28.4299 122.441H25.4379V120.441H28.4299V122.441ZM19.4529 122.441H16.4609V120.441H19.4529V122.441ZM10.4769 122.441H7.48486V120.441H10.4769V122.441Z" fill="black"/>
</g>
<g opacity="0.2">
<path opacity="0.2" d="M206.471 120.441H204.971V122.441H206.471V120.441Z" fill="black"/>
</g>
</g>
</g>
<g opacity="0.2">
<g opacity="0.2">
<g opacity="0.2">
<path opacity="0.2" d="M1.5 80.2941H0V82.2941H1.5V80.2941Z" fill="black"/>
</g>
<g opacity="0.2">
<path opacity="0.2" d="M198.987 82.2941H195.995V80.2941H198.987V82.2941ZM190.01 82.2941H187.018V80.2941H190.01V82.2941ZM181.033 82.2941H178.041V80.2941H181.033V82.2941ZM172.057 82.2941H169.065V80.2941H172.057V82.2941ZM163.08 82.2941H160.088V80.2941H163.08V82.2941ZM154.104 82.2941H151.112V80.2941H154.104V82.2941ZM145.127 82.2941H142.135V80.2941H145.127V82.2941ZM136.151 82.2941H133.159V80.2941H136.151V82.2941ZM127.173 82.2941H124.181V80.2941H127.173V82.2941ZM118.197 82.2941H115.205V80.2941H118.197V82.2941ZM109.22 82.2941H106.228V80.2941H109.22V82.2941ZM100.243 82.2941H97.2509V80.2941H100.243V82.2941ZM91.2668 82.2941H88.2748V80.2941H91.2668V82.2941ZM82.2899 82.2941H79.2979V80.2941H82.2899V82.2941ZM73.3138 82.2941H70.3218V80.2941H73.3138V82.2941ZM64.3369 82.2941H61.3448V80.2941H64.3369V82.2941ZM55.3608 82.2941H52.3688V80.2941H55.3608V82.2941ZM46.3829 82.2941H43.3909V80.2941H46.3829V82.2941ZM37.4069 82.2941H34.4149V80.2941H37.4069V82.2941ZM28.4299 82.2941H25.4379V80.2941H28.4299V82.2941ZM19.4529 82.2941H16.4609V80.2941H19.4529V82.2941ZM10.4769 82.2941H7.48486V80.2941H10.4769V82.2941Z" fill="black"/>
</g>
<g opacity="0.2">
<path opacity="0.2" d="M206.471 80.2941H204.971V82.2941H206.471V80.2941Z" fill="black"/>
</g>
</g>
</g>
<g opacity="0.2">
<g opacity="0.2">
<g opacity="0.2">
<path opacity="0.2" d="M1.5 40.1481H0V42.1481H1.5V40.1481Z" fill="black"/>
</g>
<g opacity="0.2">
<path opacity="0.2" d="M198.987 42.1481H195.995V40.1481H198.987V42.1481ZM190.01 42.1481H187.018V40.1481H190.01V42.1481ZM181.033 42.1481H178.041V40.1481H181.033V42.1481ZM172.057 42.1481H169.065V40.1481H172.057V42.1481ZM163.08 42.1481H160.088V40.1481H163.08V42.1481ZM154.104 42.1481H151.112V40.1481H154.104V42.1481ZM145.127 42.1481H142.135V40.1481H145.127V42.1481ZM136.151 42.1481H133.159V40.1481H136.151V42.1481ZM127.173 42.1481H124.181V40.1481H127.173V42.1481ZM118.197 42.1481H115.205V40.1481H118.197V42.1481ZM109.22 42.1481H106.228V40.1481H109.22V42.1481ZM100.243 42.1481H97.2509V40.1481H100.243V42.1481ZM91.2668 42.1481H88.2748V40.1481H91.2668V42.1481ZM82.2899 42.1481H79.2979V40.1481H82.2899V42.1481ZM73.3138 42.1481H70.3218V40.1481H73.3138V42.1481ZM64.3369 42.1481H61.3448V40.1481H64.3369V42.1481ZM55.3608 42.1481H52.3688V40.1481H55.3608V42.1481ZM46.3829 42.1481H43.3909V40.1481H46.3829V42.1481ZM37.4069 42.1481H34.4149V40.1481H37.4069V42.1481ZM28.4299 42.1481H25.4379V40.1481H28.4299V42.1481ZM19.4529 42.1481H16.4609V40.1481H19.4529V42.1481ZM10.4769 42.1481H7.48486V40.1481H10.4769V42.1481Z" fill="black"/>
</g>
<g opacity="0.2">
<path opacity="0.2" d="M206.471 40.1481H204.971V42.1481H206.471V40.1481Z" fill="black"/>
</g>
</g>
</g>
<path d="M25.5568 82.985H16.8828V164.934H25.5568V82.985Z" fill="#56A746"/>
<path d="M51.9011 51.901H43.2271V164.934H51.9011V51.901Z" fill="#9ECC70"/>
<path d="M78.2448 71.682H69.5708V164.935H78.2448V71.682Z" fill="#8CCA9C"/>
<path d="M183.621 71.682H174.947V164.935H183.621V71.682Z" fill="#4092D4"/>
<path d="M104.589 90.0499H95.915V164.935H104.589V90.0499Z" fill="#B0DDD8"/>
<path d="M157.277 90.0499H148.603V164.935H157.277V90.0499Z" fill="#46BEF4"/>
<path d="M130.933 107.005H122.259V164.935H130.933V107.005Z" fill="#93D6F8"/>
</svg>
